<svg viewBox="0 0 600 600" xmlns="http://www.w3.org/2000/svg"><defs><style>.cls-1{fill:#e8aceb;}.cls-2{fill:#def7e7;}.cls-3{fill:#dff6e6;}.cls-4{fill:#18090a;}.cls-5{fill:#1a0a0b;}.cls-6{fill:#19090b;}.cls-7{fill:#1a0a0c;}.cls-8{fill:#1b0c0e;}.cls-9{fill:#1d0d0f;}.cls-10{fill:#1e0d10;}.cls-11{fill:#200f12;}.cls-12{fill:#1c0c0e;}.cls-13{fill:#1c0c0f;}.cls-14{fill:#1f0e12;}.cls-15{fill:#1f0e11;}.cls-16{fill:#1f0e10;}.cls-17{fill:#220f12;}.cls-18{fill:#221115;}.cls-19{fill:#1e0e11;}.cls-20{fill:#251115;}.cls-21{fill:#1f0d10;}.cls-22{fill:#1e0e10;}.cls-23{fill:#1a090b;}.cls-24{fill:#241014;}.cls-25{fill:#1d0e11;}.cls-26{fill:#200f13;}.cls-27{fill:#1e0c0e;}.cls-28{fill:#1e0f12;}.cls-29{fill:#1c0b0d;}.cls-30{fill:#2c171e;}.cls-31{fill:#806080;}.cls-32{fill:#130505;}.cls-33{fill:#60455b;}.cls-34{fill:none;}</style></defs><g id="图层_2"><g id="图层_1-2"><path d="M482.7,240.83c-2.75-5.61-8.78-7.77-13.8-5.79a37.53,37.53,0,0,0-7.65,3.77c-4.54,3.09-9.09,6.17-13.43,9.53-27.33,21.19-48.69,47.44-65.58,77.47-1.06,1.89-24.27,61.29-39.61,84.81-4,6.09-29.57-88.26-31.22-95.16-4-16.67-7.14-33.5-10.51-50.29-2.15-10.76-4.77-21.44-6.77-32.23-2.8-15.13-4.23-30.44-5.68-45.75-1.77-18.71-1.8-37.3,1.74-55.8,1.73-9.06,3.53-18.11,5.66-27.07a148.47,148.47,0,0,1,10.55-29c1.68-3.57,3.24-7.2,4.65-10.89a4.34,4.34,0,0,0-1.3-4.83c-1.48-1.38-3.25-1.21-4.92-.44a30.14,30.14,0,0,0-3.36,2.08C295,65.35,288.4,69.3,282.11,73.71c-12.42,8.7-24.83,17.46-35.16,28.71a5,5,0,0,1-4.63,1.71c-7.36-.59-14-3.41-20.81-5.94-3-1.13-3.27-1.46-2.16-4.21,2.71-6.71,5.43-13.43,8.28-20.09,4.75-11.1,9.62-22.14,14.42-33.22a21.56,21.56,0,0,0,1.58-4.32,4.28,4.28,0,0,0-5.74-4.86A28.85,28.85,0,0,0,235,33a248.18,248.18,0,0,0-72.64,59.18c-1.28,1.51-2.32,3.4-3.91,4.42-2.83,1.82-4,4.58-5.28,7.37a374,374,0,0,0-18.52,50.67,476.39,476.39,0,0,0-11.94,52.64c-.29,1.7-.18,3.5-1.88,4.71-2.1,1.48-2.24,3.7-1.65,5.94a24.13,24.13,0,0,1,.56,9.79,501,501,0,0,0-4.52,53.17,571.42,571.42,0,0,0,3.18,85.56,496.9,496.9,0,0,0,15,78.87c7,25.24,16.2,49.66,28.88,72.67,9.27,16.82,20.18,32.46,34.12,45.82a45,45,0,0,0,3.91,3.53c4.16,3.11,9.07,1.06,9.63-4.05a64.63,64.63,0,0,0,.29-7.24c0-1.27-.06-2.53-.14-3.8-.5-5.21-1-10.41-1.65-15.6a1.24,1.24,0,0,1,.12-.69c-.08-.36-.15-.75-.21-1.21a242.62,242.62,0,0,0-6.5-32.16c-1.11-4-2.43-7.95-3.62-11.93-.37-1.23-.63-2.49-1-3.9,9.05-2.79,17.91-2.46,26.82-1.11a8.32,8.32,0,0,1,4.5,2.5,20.81,20.81,0,0,1,4.37,6.32,48.82,48.82,0,0,1,2.77,6.63c.75,2.14,1.42,4.3,2.13,6.45a58.79,58.79,0,0,0,2.87,6.81c2.07,4.32,4.29,8.57,6.33,12.91a4.7,4.7,0,0,1,.59,1.13l.15.48c.45,1,.89,2,1.32,3a145.19,145.19,0,0,1,6.31,18,5,5,0,0,0,4.12,2.63,5.2,5.2,0,0,0,5.17-3.4c.92-2,1.57-4.09,2.36-6.14a2.51,2.51,0,0,1,1.76-1.79c3-.56,6.26-1.87,9.07-.54,6.5,3.07,13.27,2.52,20.06,2.47,7.69-.06,15.39-.16,23.08,0a117.93,117.93,0,0,0,25.59-1.69c5-1,10-2.25,14.12-5.17a86.88,86.88,0,0,1,12.24-7.59,5.38,5.38,0,0,0,3.39-4.51,3.16,3.16,0,0,1,1.88-2.53c5.7-2.88,8-8.55,11.14-13.52a5,5,0,0,0,.48-3.8c-1.29-6.55-.87-13.14-.19-19.7.55-5.24,1.38-10.45,2-15.69a205.16,205.16,0,0,1,20.63-68.38,417.14,417.14,0,0,1,26.69-45.41c10.69-16.12,20.48-32.78,29.76-49.74a146.82,146.82,0,0,0,13.38-33.56A124.55,124.55,0,0,0,485,256.26,26.82,26.82,0,0,0,482.7,240.83Z"></path><path d="M187.77,241.37c-.68,6.89-1.35,13.42-2,20-.26,2.83-.7,5.68,1.23,8.25a4.3,4.3,0,0,1,.45,2.53c-.28,7.92,1,15.72,1.89,23.53,1.25,11.42,5,22.27,8.78,33A360,360,0,0,0,223,383.17a145.12,145.12,0,0,0,27.26,35.36c4.8,4.51,9.71,8.9,12.87,14.86A7.26,7.26,0,0,0,266,436a5,5,0,0,0,6.84-1.91,40.46,40.46,0,0,0,4.35-19.72,5.51,5.51,0,0,0-2.1-4c-1.43-1.35-2.88-2.71-4.41-3.94-12.88-10.35-22.61-23.29-30.74-37.5a557.45,557.45,0,0,1-28.6-57.83,189.79,189.79,0,0,1-9-27.51,17.9,17.9,0,0,1-.29-2.56,3.19,3.19,0,0,1,2.47,1.05c9,7.73,18.63,14.69,28.18,21.73a156.92,156.92,0,0,0,41.14,21.89c10.56,3.71,21.16,7.3,31.76,10.89,2,.66,3.5,1.48,4.1,3.72,4.46,16.57,11.11,32.38,16.66,48.58,9.12,26.63,20.89,52.16,32.87,77.57a201.25,201.25,0,0,0,10.55,19c2.36,3.86,4.59,8.06,9.16,10a2.46,2.46,0,0,1,1.14,1.43c2.37,7.46.45,12.78-6.14,17-2.41,1.52-4.91,2.91-7.37,4.36a6.43,6.43,0,0,0-2.91,2.57c-3.62,7.56-10.65,9.95-18,11.61a77.17,77.17,0,0,1-18.33,1.73c-10.1-.17-20.19-.25-30.31-.69,3.49-1,6.91-2.27,10.67-1a6.18,6.18,0,0,0,2.61.17,4,4,0,0,0,3-5.48,28.64,28.64,0,0,0-2.55-3.83,37.71,37.71,0,0,1-5.94-13.13c-3.22-12.43-2.58-24.79.66-37.12,1.34-5.12,2.85-10.15,5.59-14.73.93-1.56,2-2.91,4.1-2.71a2.9,2.9,0,0,0,1.27-.29,3.45,3.45,0,0,0,2.3-3,3.41,3.41,0,0,0-1.82-3.27,6.64,6.64,0,0,0-7.44.09,16,16,0,0,0-4.91,5.25,50.44,50.44,0,0,0-5.5,11.93c-4.74,14.72-6.14,29.61-2.33,44.79a64.66,64.66,0,0,0,3.63,10.57c.71,1.61.23,2.44-1.6,2.72a79.69,79.69,0,0,0-20.13,6c-2.29,1-4.65,1.09-6.79,1.63-1.68-1.39-.49-2.63-.13-3.73,3.17-9.82,6.24-19.66,8.62-29.71,2.49-10.52,3.44-21.24,4.49-32a13.85,13.85,0,0,0-.08-3.28,3.83,3.83,0,0,0-7.52-.31,20.68,20.68,0,0,0-.46,3.25c-.56,5.24-1,10.5-1.68,15.73-1.84,14.44-6,28.32-10.56,42.1-.82,2.5-1.64,5-2.59,7.46-.37,1-.83,2.2-2.22,2-1.23-.12-1.72-1.26-2.17-2.22-.57-1.18-.92-2.46-1.4-3.69-3-7.78-5.56-15.74-10.14-22.83-.93-1.43-1.23-3.26-1.87-4.9-1.45-3.67-2.78-7.4-4.43-11a25.29,25.29,0,0,0-7.28-9.24,16.11,16.11,0,0,0-7.77-3.29c-11.09-1.72-21.91-.49-32.57,2.69-3.73,1.11-4.49,2.55-3.11,6.41,4.3,12,6.85,24.51,9.26,37A159.05,159.05,0,0,1,200.83,541c.31,4.12,1.12,8.24,1.21,12.4,0,.8.31,1.75-.67,2.33-1.47,0-2.12-1.27-3-2.15a168.57,168.57,0,0,1-21.81-28c-11.49-18.08-20.23-37.47-27.35-57.6a444.85,444.85,0,0,1-20.09-82.43A567.48,567.48,0,0,1,123,288.91c.3-14.5,1.26-29,2.57-43.42.09-1.05-.06-2.24,1.1-2.87,1.06.1,1.32,1,1.7,1.72,3.32,6.46,7.19,12.58,11.07,18.7a31.78,31.78,0,0,1,3.29,6.41c1.12,3.15,4.35,4,7,1.89q10.37-8.14,20.52-16.54c4.58-3.77,9-7.71,13.56-11.52C184.79,242.48,185.62,241.35,187.77,241.37Z" class="cls-1"></path><path d="M231,45.16c-.84,2-1.64,4-2.52,5.89-6.15,13.61-12,27.34-17.39,41.27-3.06,7.94-2.36,9.39,5.54,11.9a55.21,55.21,0,0,1,6.82,2.43c6.27,2.95,13,3.81,19.72,5a8.33,8.33,0,0,0,8.24-2.88c12.5-13.84,27.78-24.2,43.17-34.42.86-.57,1.82-1,2.68-1.48.74.76.41,1.38.14,2-6.54,14-10.1,29-13.29,44-4.24,20.12-6,40.4-4.29,60.92,1.2,14.22,2.24,28.47,4.64,42.57.26,1.51.41,3.05.56,4.58.41,4.15.28,4.41-4.14,4.5-12.75.29-25.49.46-38.24.67-2.2,0-4.41-.11-6.59,0a111.2,111.2,0,0,1-31.4-2.53c-2.35-.5-4.94-1.15-7.17-.64-4.31,1-7.72-.74-11.25-2.47-8-3.9-16.46-6.08-25.11-7.69a132.93,132.93,0,0,1-26.44-7.95c-3.63-1.5-4.13-2.32-3.49-5.92,5.35-29.68,13-58.7,24.27-86.74A79.22,79.22,0,0,1,170.6,93.81C186.85,76,204.53,60,225,47.25c1.67-1,3.4-2,5.1-3Z" class="cls-1"></path><path d="M381.14,485.81c-2.4-.53-3-2.08-3.77-3.32a267.49,267.49,0,0,1-15.81-29.6c-.66-1.4-12.45-24.49-12.62-26.05-.78-7.26,6-16.44,15.5-36.12a78.16,78.16,0,0,0,4.1-10.35c8.33-26.14,19.82-52.92,35.67-75.19,14.76-20.74,31.94-39.1,52.43-54.26,3.18-2.35,6.48-4.53,9.8-6.67a21.33,21.33,0,0,1,4.14-2c2.81-1,4.58-.18,5.51,2.77a23.05,23.05,0,0,1,.82,9.75,121.32,121.32,0,0,1-7.25,28.48,149.91,149.91,0,0,1-9.59,20.26c-9.26,16.5-18.85,32.79-29.36,48.54a390.08,390.08,0,0,0-26.45,45.51A211.36,211.36,0,0,0,383.73,466C383,472.5,382,479,381.14,485.81Z" class="cls-1"></path><path d="M288.36,248.26a3.69,3.69,0,0,1,.67.51,3.07,3.07,0,0,1,.7,1.09q6.93,33.47,13.79,66.95c.08.38-.18.82-.28,1.22C285,316,225,287,208.11,272c3.94-2.06,5.18-5.63,5.79-9.7.69-4.54,1.67-9,2.52-13.48,1.59-.08,2.1.89,2.62,1.83,1.7,3.07,3.45,6.1,5.05,9.22a151.65,151.65,0,0,0,9.69,16.41,28.63,28.63,0,0,0,1.91,2.67c2.25,2.61,5,3,7.37.46,5.33-5.81,12.17-9.28,18.89-12.95,8.3-4.54,16.34-9.41,23.32-15.87A32.83,32.83,0,0,1,288.36,248.26Z" class="cls-1"></path><path d="M130,216.83c12.2,6.32,25.06,9.1,38,11.75a46.26,46.26,0,0,1,13.55,4.82c.33,1.8-1.21,2.17-2.1,2.93q-11,9.46-22.08,18.81c-2.68,2.24-5.31,4.59-8.57,6-3.13-1.94-4.21-5.43-6.09-8.28a139.52,139.52,0,0,1-12.83-25.19C128.5,224.33,127.89,221,130,216.83Z" class="cls-2"></path><path d="M221.46,240.8c1.2-.5,1.57-.79,1.92-.78,20,.4,40,0,60-.3.15,0,.3.22.47.35.45,1.12-.52,1.56-1.11,2.08a120.92,120.92,0,0,1-24.22,17c-5.81,3.06-11.69,6.08-16.81,10.32-1.39,1.15-2.05,1-3.12-.7-1.55-2.4-3.1-4.81-4.44-7.32C230.39,254.46,226.82,247.4,221.46,240.8Z" class="cls-3"></path><path d="M302.05,423.25a3.63,3.63,0,0,1-5.13,2.45,6.64,6.64,0,0,1-2.78-2.7c-3.18-5.49-6.37-11-9.46-16.51a10,10,0,0,1-1.08-3.72,3.09,3.09,0,0,1,1.86-3.19,3.6,3.6,0,0,1,4.18.87,9.82,9.82,0,0,1,.71,1.1l10.25,16.8C301.52,419.86,302.44,421.36,302.05,423.25Z" class="cls-4"></path><path d="M277.49,391.75a4.15,4.15,0,0,1-3.58-1.85q-5.67-8-11.22-16.07a7.27,7.27,0,0,1-.75-1.81c-.75-2.22-.17-4.14,1.53-5.15s3.72-.38,4.87,1.8c2.77,5.25,6.84,9.57,10.18,14.4,1,1.43,2.17,2.73,2.51,4.52A3.57,3.57,0,0,1,277.49,391.75Z" class="cls-5"></path><path d="M166.51,406.75a30.12,30.12,0,0,1,.79-3.77,3.1,3.1,0,0,1,2.94-2.22,3.56,3.56,0,0,1,3.53,2.42,3.6,3.6,0,0,1,.26,1.27c-.29,4.54,1.7,8.56,2.86,12.77a42.5,42.5,0,0,1,1.38,5.72,3.46,3.46,0,0,1-2.7,3.95,3.78,3.78,0,0,1-4-1.74,2.43,2.43,0,0,1-.33-.56A81.22,81.22,0,0,1,166.51,406.75Z" class="cls-6"></path><path d="M214.42,433.78a12.89,12.89,0,0,1,.7-2.16,3.18,3.18,0,0,1,5-.71,3.91,3.91,0,0,1,1.12,1.58c1.09,5.28,4,9.71,6.54,14.32a16.76,16.76,0,0,1,1.25,3,3.45,3.45,0,0,1-1.78,3.86,3.29,3.29,0,0,1-3.71-.24,4.69,4.69,0,0,1-1.45-1.31c-3.19-5-6.16-10.14-7.39-16.06C214.6,435.45,214.56,434.79,214.42,433.78Z" class="cls-7"></path><path d="M336.32,453.32a3.32,3.32,0,0,1-3.38,3.24,4.49,4.49,0,0,1-3.44-1.62c-3.4-4.28-6.61-8.68-8.15-14a5.74,5.74,0,0,1-.15-2.54,3.44,3.44,0,0,1,2.55-2.71c1.44-.44,2.52.26,3.47,1.24a3.12,3.12,0,0,1,.71,1.08c1.42,4.22,4.25,7.58,6.71,11.17A7,7,0,0,1,336.32,453.32Z" class="cls-8"></path><path d="M153.35,351.94a6.88,6.88,0,0,1,.9-4.53,3.4,3.4,0,0,1,3.29-1.76c1.39.17,2.79,1.06,2.87,2.35.35,5.58,3,10.47,4.36,15.73a5.11,5.11,0,0,1,0,1.95,3.38,3.38,0,0,1-5,2.29,5.71,5.71,0,0,1-1.79-1.84A51.45,51.45,0,0,1,153.35,351.94Z" class="cls-9"></path><path d="M188.67,377a3.58,3.58,0,0,1-5.95,2.34,6.37,6.37,0,0,1-1.8-2.69c-1.3-3.71-2.48-7.46-3.63-11.23a5.66,5.66,0,0,1,.21-4.47,3.68,3.68,0,0,1,3.09-2.11,2.66,2.66,0,0,1,2.73,1.48c1.88,5.33,3.59,10.73,5.34,16.1A1.9,1.9,0,0,1,188.67,377Z" class="cls-10"></path><path d="M172.83,290.72a25.25,25.25,0,0,1,.62-3.63,3.49,3.49,0,0,1,3.57-2.31,3.57,3.57,0,0,1,2.91,2.32,3.51,3.51,0,0,1,.36,1.25A78.52,78.52,0,0,0,182,301.3c.58,2.78-.29,4.26-2.12,4.9-2,.69-3.94-.39-5-3.07C173.48,299.43,173,295.53,172.83,290.72Z" class="cls-11"></path><path d="M178.49,339a21.53,21.53,0,0,1-.63,2.83,3.2,3.2,0,0,1-4.44,1.45,5.8,5.8,0,0,1-2.79-3.5c-1.22-3.74-2.31-7.52-3.4-11.3a9,9,0,0,1-.3-2.58,3.41,3.41,0,0,1,2.67-3.3,3.24,3.24,0,0,1,3.85,1.74C175.23,329.28,176.86,334.26,178.49,339Z" class="cls-12"></path><path d="M200.65,389.89a14.11,14.11,0,0,1,.71-2.32,3.15,3.15,0,0,1,3.2-1.8,2.71,2.71,0,0,1,2.67,1.55q2.51,6.69,4.83,13.46a3.25,3.25,0,0,1-1.21,3.5,3.65,3.65,0,0,1-4.28,0,5.85,5.85,0,0,1-1.41-1.35C202.57,399,201.39,394.64,200.65,389.89Z" class="cls-10"></path><path d="M185.57,393.41c0-2.7.87-4.25,2.69-4.58,2.21-.41,3.69.82,4.42,3.67.86,3.37,1.76,6.72,2.55,10.1.6,2.59-.14,4.33-1.89,4.94-2,.72-4.16-.28-5.2-2.75A35,35,0,0,1,185.57,393.41Z" class="cls-6"></path><path d="M178.47,443.17c1.4,0,3.19,1.08,3.37,2.58a37.8,37.8,0,0,0,3.32,10.5,4.47,4.47,0,0,1,.31,1.26,3.74,3.74,0,0,1-2.21,3.64,3.09,3.09,0,0,1-3.6-.75,17.75,17.75,0,0,1-4.39-14.47A3.5,3.5,0,0,1,178.47,443.17Z" class="cls-10"></path><path d="M239.73,327.21c-.33,3-3.44,4.43-5.56,2.92a21,21,0,0,1-7.15-9.86,4.16,4.16,0,0,1-.16-1.28,3.88,3.88,0,0,1,2.27-3.65,3.47,3.47,0,0,1,4,1.35c2,2.82,4,5.66,5.89,8.55A6.75,6.75,0,0,1,239.73,327.21Z" class="cls-10"></path><path d="M190.65,346c1.09.18,2.26.47,2.74,1.5,1.56,3.32,3,6.68,4.41,10.08a3.37,3.37,0,0,1-1.27,4,3.12,3.12,0,0,1-4.17-.25c-3.55-3.49-5.48-7.71-5-12.79C187.45,347.19,189.21,346,190.65,346Z" class="cls-13"></path><path d="M141.42,395.72c.08-.74.1-1.18.17-1.61a3.61,3.61,0,0,1,3.14-2.89,3.21,3.21,0,0,1,3.59,2.26c.84,3.38,1.52,6.81,2.08,10.26a3.1,3.1,0,0,1-1.86,3.21,3.46,3.46,0,0,1-4.15-1,7.76,7.76,0,0,1-1.64-2.8C142.15,400.63,141.82,398,141.42,395.72Z" class="cls-14"></path><path d="M128,280.5a41.12,41.12,0,0,1,.05-5.21,3,3,0,0,1,2.66-2.52,3.29,3.29,0,0,1,3.73,2,20.54,20.54,0,0,1,1.07,10.3,5.21,5.21,0,0,1-2.06,3.24,3.38,3.38,0,0,1-5.21-1.9,20.76,20.76,0,0,1-.19-3.26c0-.87,0-1.74,0-2.62Z" class="cls-15"></path><path d="M305.41,389.72a3.58,3.58,0,0,1-5,3c-3.09-1.45-6.51-7.3-6.29-10.78a3.75,3.75,0,0,1,2.66-3.32,3,3,0,0,1,3.44,1.22c1.72,2.73,3.29,5.56,4.85,8.38A4.34,4.34,0,0,1,305.41,389.72Z" class="cls-16"></path><path d="M264.06,503.63c0,1.75-.48,2.93-1.79,3.62a3.5,3.5,0,0,1-4.2-.75,8,8,0,0,1-1.76-2.73,22.58,22.58,0,0,1-.8-9.1,3.26,3.26,0,0,1,2.91-3.08,3.31,3.31,0,0,1,3.89,2.71A48.11,48.11,0,0,0,264.06,503.63Z" class="cls-6"></path><path d="M138.58,321.77c.08,1.08.24,2.17.23,3.25a3.14,3.14,0,0,1-1.87,3.15,3.68,3.68,0,0,1-4.17-.93c-2.3-2.66-2.6-9.63-.5-12.36a3.13,3.13,0,0,1,2.89-1.18A3,3,0,0,1,138,316a46.69,46.69,0,0,1,.61,5.81Z" class="cls-17"></path><path d="M146.62,321.79a25.47,25.47,0,0,1,.71-2.67,3.25,3.25,0,0,1,3-2.19,2.93,2.93,0,0,1,3.17,1.86,67.29,67.29,0,0,1,2,8.84c.25,1.55-1.14,2.92-2.66,3.25a3.6,3.6,0,0,1-3.9-1.73C147.44,326.87,147.43,324.17,146.62,321.79Z" class="cls-18"></path><path d="M326.86,474.18a3.42,3.42,0,0,1,2.72,1.37c1.42,2.17,2.86,4.33,4.17,6.57a5.18,5.18,0,0,1,.61,2.49c0,2.21-2.87,4-4.77,2.81a12.92,12.92,0,0,1-6.3-9.4A3.48,3.48,0,0,1,326.86,474.18Z" class="cls-15"></path><path d="M194.22,427.66a12.72,12.72,0,0,1,.39-2,3.39,3.39,0,0,1,2.75-2.44,3.06,3.06,0,0,1,3.32,1.51c1.6,2.88,1.83,6.16,2.33,9.33.22,1.34-1.27,2.86-2.7,3.25a3.39,3.39,0,0,1-3.47-1.2C194.52,433.69,195.27,430.35,194.22,427.66Z" class="cls-19"></path><path d="M288.54,452.53a7.8,7.8,0,0,1-.83,4.57,3.24,3.24,0,0,1-3.21,1.74,2.83,2.83,0,0,1-2.59-1.66A19.31,19.31,0,0,1,281,447c.21-1.37,1.49-2.07,2.84-2.29a3.56,3.56,0,0,1,3.55,2.28C287.92,449.09,288.27,451.23,288.54,452.53Z" class="cls-10"></path><path d="M301.6,353.36a3.11,3.11,0,0,1,3.22,1.85,68.11,68.11,0,0,1,2.62,8.09c.5,2-1.5,3.8-3.63,3.55a4.24,4.24,0,0,1-2.87-1.42,11.51,11.51,0,0,1-2.54-9.21A3.72,3.72,0,0,1,301.6,353.36Z" class="cls-20"></path><path d="M364,510.26a3.32,3.32,0,0,1-4,2.75,11.94,11.94,0,0,1-7.72-7.45,3.44,3.44,0,0,1,1.63-3.94,2.86,2.86,0,0,1,3.64.21c1.93,1.76,3.74,3.67,5.53,5.58A3.62,3.62,0,0,1,364,510.26Z" class="cls-21"></path><path d="M157.18,441.07c0,2.89-2.59,4.49-4.7,3.48-2.64-1.28-5.42-6.27-5.19-9.33a4,4,0,0,1,3.22-3.66,3.67,3.67,0,0,1,3.65,2.24c.87,1.75,1.71,3.53,2.48,5.33A10.72,10.72,0,0,1,157.18,441.07Z" class="cls-21"></path><path d="M159.63,284.31a5.91,5.91,0,0,1,1.22-4.16,3.4,3.4,0,0,1,3.43-1.4A3.36,3.36,0,0,1,167,281.3a58.86,58.86,0,0,1,.72,7.16,3,3,0,0,1-1.95,3.09,3.7,3.7,0,0,1-4.16-1A9.43,9.43,0,0,1,159.63,284.31Z" class="cls-22"></path><path d="M305.53,408a3.6,3.6,0,0,1,2.57-3.61,3.28,3.28,0,0,1,3.89,1.71,43.22,43.22,0,0,0,3.31,6.37,3.3,3.3,0,0,1-.9,4.13,3.46,3.46,0,0,1-4.28.15C306.78,414.69,305.71,411.46,305.53,408Z" class="cls-13"></path><path d="M142.14,288.59c0-2,0-3.57.92-4.85a3.4,3.4,0,0,1,3.33-1.62,2.91,2.91,0,0,1,2.76,2.36c.45,2.55.71,5.14.92,7.72a3.42,3.42,0,0,1-2.35,3.51,3.7,3.7,0,0,1-4-1.41C142.25,292.48,142.22,290.3,142.14,288.59Z" class="cls-23"></path><path d="M309.89,394.44a6.91,6.91,0,0,1,.27-1.65,3.54,3.54,0,0,1,2.88-2.31,2.75,2.75,0,0,1,2.84,1.19,50.47,50.47,0,0,1,3.14,7.05,2.94,2.94,0,0,1-1.43,3.35,3.29,3.29,0,0,1-3.66.25C311.37,400.91,310,398.27,309.89,394.44Z" class="cls-24"></path><path d="M143.91,363.2c0,2-.69,3-2,3.69a3.1,3.1,0,0,1-3.63-.6c-2.37-2-3.4-7.4-2-10.35a3.23,3.23,0,0,1,3.18-1.9,2.92,2.92,0,0,1,3,2C143.1,358.62,143.52,361.21,143.91,363.2Z" class="cls-25"></path><path d="M254.28,451.42c-.14,2.47-3,4.1-4.9,3.1-2.53-1.32-4.81-5.38-4.45-8.19a3.75,3.75,0,0,1,2.65-3.39,3.51,3.51,0,0,1,4.25,2.14c.76,1.56,1.42,3.16,2.07,4.77A10.11,10.11,0,0,1,254.28,451.42Z" class="cls-26"></path><path d="M197.8,454.92a3.33,3.33,0,0,1,2.44-2.93,3.52,3.52,0,0,1,4.29,2c.81,1.52,1.63,3.05,2.29,4.64a3.42,3.42,0,0,1-.84,4.15c-1.37,1.24-3.07,1.24-4.74,0A8.33,8.33,0,0,1,197.8,454.92Z" class="cls-26"></path><path d="M256.24,354.42a3.25,3.25,0,0,1-3.13,3.27c-3.64,0-7.46-4.13-7.14-7.79a3.46,3.46,0,0,1,2.1-3,3.17,3.17,0,0,1,3.62.6,45,45,0,0,1,4,5A4.8,4.8,0,0,1,256.24,354.42Z" class="cls-27"></path><path d="M248.94,474.18c0-2.4,1-3.77,2.72-4.14,1.92-.39,3.66.81,4.29,3.11a40.68,40.68,0,0,1,1.09,5.13,3.57,3.57,0,0,1-2.1,3.76,3.86,3.86,0,0,1-4.11-1.24C249.07,478.83,249.09,476.39,248.94,474.18Z" class="cls-28"></path><path d="M279.48,349.17a8.7,8.7,0,0,1,.61-2,3.26,3.26,0,0,1,3.2-1.85,2.84,2.84,0,0,1,2.68,1.59,36.28,36.28,0,0,1,2.16,6.13c.5,2.18-2.21,4.15-4.33,3.33C281.09,355.32,279.45,352.78,279.48,349.17Z" class="cls-23"></path><path d="M337.41,472c0-2.17.86-3.65,2.22-4.11a3.73,3.73,0,0,1,4.44,1.89c.76,1.58,1.37,3.23,2,4.87a3.27,3.27,0,0,1-1,3.58,3.78,3.78,0,0,1-4.32.13A7.77,7.77,0,0,1,337.41,472Z" class="cls-29"></path><path d="M162.54,466.18c1.36.08,2.71.54,3.14,1.86a31.39,31.39,0,0,1,1.37,6.26,2.89,2.89,0,0,1-2,3,3.46,3.46,0,0,1-3.64-.6c-2-1.73-2.88-6.76-1.58-9A3.26,3.26,0,0,1,162.54,466.18Z" class="cls-7"></path><path d="M266.29,447a6.86,6.86,0,0,1,.54-2,3.29,3.29,0,0,1,3.19-1.89,2.9,2.9,0,0,1,2.68,1.63,22.33,22.33,0,0,1,1.28,5,3.53,3.53,0,0,1-2.45,3.51,3.78,3.78,0,0,1-4.08-1.41C266.38,450.64,266.3,449.13,266.29,447Z" class="cls-30"></path><path d="M172.28,485.09a2.55,2.55,0,0,1-2.66,2.3,2.61,2.61,0,0,1-2.09-2.86,2.13,2.13,0,0,1,2.25-1.92A2.55,2.55,0,0,1,172.28,485.09Z" class="cls-31"></path><path d="M226.13,162.82a22.31,22.31,0,0,1-6-17.12c.2-2.78,0-2.88-2.81-3.39-3.46-.62-6.93-1.15-10.4-1.7A3.34,3.34,0,0,0,203.5,142a31.12,31.12,0,0,1-3.43,4c-5.26,4.88-11.47,7.43-18.67,6.4-12.1-1.73-19.38-12.65-16.45-24.7,3.09-12.74,15.47-19,25.21-17.53,9.59,1.5,16.33,8.4,17.05,18,.09,1.3,0,2.6,0,4.15,5.11,2,10.45,1.75,15.51,2.92.94.22,1.61-.45,2.25-1.09a32.12,32.12,0,0,1,3.34-3.16c6.08-4.55,12.72-6,19.82-2.81,7.28,3.26,11,9.21,11.6,17,.9,12-9.5,24.31-23.33,22.29-1.27-.18-2.56-.72-4.22,0-.43,1.89-.89,4-1.4,6.1a23.86,23.86,0,0,1-6.65,11.91,19.11,19.11,0,0,1-15.61,5.57c-5.49-.52-9.51-3.13-11.61-8.35-.4-1-.51-2.16-1-3.14a1.52,1.52,0,0,0-2.1-.93c-2.26.84-4.57,1.55-6.86,2.28a26,26,0,0,1-11.11.76c-5.58-.67-9.09-4.19-10.12-9.7a23.71,23.71,0,0,1,1.2-11.66,6.8,6.8,0,0,1,4.51-4.46,4,4,0,0,1,4.66,1.5,2.93,2.93,0,0,1-.44,4.17c-2.89,2.27-2.77,5.32-2.49,8.4a4,4,0,0,0,3.88,3.79c6.16.59,11.73-1.21,16.9-4.39a9.13,9.13,0,0,0,3.49-4.68,21.32,21.32,0,0,1,1.62-3.57,3.87,3.87,0,0,1,4.67-1.41,3.57,3.57,0,0,1,2.25,3.68,30,30,0,0,1-1,4.48c-.9,3.43-1.56,6.87-.91,10.41.56,3.08,2.23,4.55,5.37,4.79,4.62.36,8-1.79,10.7-5.32a13.81,13.81,0,0,0,3-7.92A9.51,9.51,0,0,1,226.13,162.82Z" class="cls-32"></path><path d="M283.55,282a3.72,3.72,0,0,1-2.21,3.22,2.67,2.67,0,0,1-3.06-.23,17,17,0,0,1-6.24-11.7,5,5,0,0,1,1.43-3.54c1.42-1.7,5.13-1.45,5.48.56.65,3.74,2.37,6.88,4.25,10A4.55,4.55,0,0,1,283.55,282Z" class="cls-14"></path><path d="M282,292.38c.42.09,1.32,0,1.64.4,1.88,2.34,4.63,3.92,5.95,6.74a3.17,3.17,0,0,1-.62,3.61,2.71,2.71,0,0,1-2.86,1.15c-2.67-.92-5.25-2.12-6.8-4.69a6,6,0,0,1-.71-4.4A3.6,3.6,0,0,1,282,292.38Z" class="cls-26"></path><path d="M289.74,312a2.86,2.86,0,0,1-2.65-2.4,2.49,2.49,0,0,1,2.12-2.75,2.55,2.55,0,0,1,3,2.56A2.87,2.87,0,0,1,289.74,312Z" class="cls-33"></path><rect height="600" width="600" class="cls-34"></rect></g></g></svg>